<?xml version="1.0" standalone="no"?>
<!DOCTYPE svg PUBLIC "-//W3C//DTD SVG 1.1//EN" "http://www.w3.org/Graphics/SVG/1.1/DTD/svg11.dtd" >
<svg xmlns="http://www.w3.org/2000/svg">
<metadata>Generated by IcoMoon</metadata>
<defs>
<font id="lq-iconfont" horiz-adv-x="1024">
<font-face units-per-em="1024" ascent="960" descent="-64" />
<missing-glyph horiz-adv-x="1024" />
<glyph unicode="&#x20;" horiz-adv-x="512" d="" />
<glyph unicode="&#xe900;" glyph-name="OK" horiz-adv-x="2105" d="M2104.889 974.222v0 0 0zM2093.511 960h-321.422l-349.867-349.867v349.867h-227.556v-1024h227.556v349.867l349.867-349.867h321.422l-512 512 512 512zM512 960c-281.6 0-512-230.4-512-512s230.4-512 512-512 512 230.4 512 512c0 281.6-230.4 512-512 512zM512 163.556c-156.444 0-284.444 128-284.444 284.444s128 284.444 284.444 284.444c156.444 0 284.444-128 284.444-284.444s-128-284.444-284.444-284.444zM2104.889-75.378v0 0 0z" />
<glyph unicode="&#xe901;" glyph-name="Disinfection-Cabinet" horiz-adv-x="931" d="M0-64h418.909v651.636h-418.909v-651.636zM186.182 448h93.091v-279.273h-93.091v279.273zM0 960v-279.273h930.909v279.273h-930.909zM279.273 773.818h-93.091v93.091h93.091v-93.091zM512 773.818h-93.091v93.091h93.091v-93.091zM744.727 773.818h-93.091v93.091h93.091v-93.091zM512-64h418.909v651.636h-418.909v-651.636zM651.636 448h93.091v-279.273h-93.091v279.273z" />
<glyph unicode="&#xe902;" glyph-name="acarid-o" d="M554.667 917.333h-85.333v-85.333h85.333v85.333zM241.067 736l-59.733 61.867-61.867-61.867 59.733-59.733 61.867 59.733zM904.533 736l-59.733 59.733-59.733-59.733 59.733-59.733 59.733 59.733zM842.667 320c6.4 27.733 10.667 55.467 10.667 85.333 0 187.733-153.6 341.333-341.333 341.333s-341.333-153.6-341.333-341.333c0-29.867 4.267-57.6 10.667-85.333h-181.333v-85.333h1024v85.333h-181.333zM753.067 320h-482.133c-8.533 27.733-14.933 55.467-14.933 85.333 0 140.8 115.2 256 256 256s256-115.2 256-256c0-29.867-6.4-57.6-14.933-85.333zM469.333-21.333h85.333v170.667h-85.333v-170.667zM768-21.333h85.333v170.667h-85.333v-170.667zM170.667-21.333h85.333v170.667h-85.333v-170.667z" />
<glyph unicode="&#xe903;" glyph-name="mix-o" d="M828.509 459.636l-93.091 93.091h181.527c-46.545 181.527-209.455 314.182-404.945 314.182s-358.4-132.655-404.945-311.855h-95.418c48.873 230.4 253.673 404.945 500.364 404.945 279.273 0 505.018-223.418 512-500.364h-195.491zM195.491 459.636l93.091-93.091h-188.509c39.564-193.164 209.455-337.455 411.927-337.455s372.364 144.291 411.927 337.455h95.418c-41.891-244.364-251.345-430.545-507.345-430.545-281.6 0-512 228.073-512 512 0 4.655 0 9.309 0 11.636h195.491z" />
<glyph unicode="&#xe904;" glyph-name="mix" d="M512 960c-283.927 0-512-228.073-512-512s228.073-512 512-512 512 228.073 512 512c0 283.927-228.073 512-512 512zM512 122.182c-179.2 0-325.818 146.618-325.818 325.818h162.909l93.091-93.091h-144.291c34.909-81.455 118.691-139.636 214.109-139.636s176.873 58.182 214.109 139.636h100.073c-41.891-134.982-165.236-232.727-314.182-232.727zM674.909 448l-93.091 93.091h141.964c-34.909 81.455-118.691 139.636-214.109 139.636s-176.873-58.182-214.109-139.636h-95.418c39.564 134.982 165.236 232.727 311.855 232.727 179.2 0 325.818-146.618 325.818-325.818h-162.909z" />
<glyph unicode="&#xe905;" glyph-name="silk-o" d="M0 960v-1024h1024v1024h-1024zM1024 396.8h-716.8v-256h307.2v102.4h-204.8v51.2h512v-256h-819.2v819.2h819.2v-256h-512v51.2h204.8v102.4h-307.2v-256h716.8v-102.4z" />
<glyph unicode="&#xe906;" glyph-name="silk" d="M409.6 704v-102.4h614.4v358.4h-1024v-1024h1024v358.4h-614.4v-102.4h204.8v-102.4h-307.2v307.2h716.8v102.4h-716.8v307.2h307.2v-102.4z" />
<glyph unicode="&#xe907;" glyph-name="duvet-o" d="M1024 704v256h-1024v-1024h1024v563.2h-204.8v204.8h-614.4v-307.2h716.8v-358.4h-819.2v819.2h819.2v-153.6h102.4zM716.8 499.2h-409.6v102.4h409.6v-102.4z" />
<glyph unicode="&#xe908;" glyph-name="duvet" d="M1024 499.2v460.8h-1024v-1024h1024v460.8h-819.2v307.2h614.4v-204.8h204.8zM716.8 499.2v102.4h-409.6v-102.4h409.6z" />
<glyph unicode="&#xe909;" glyph-name="leather-o" d="M819.2 755.2v204.8h-614.4v-204.8h-204.8v-819.2h1024v819.2h-204.8zM307.2 857.6h409.6v-102.4h-409.6v102.4zM102.4 652.8h819.2v-614.4h-819.2v614.4zM204.8 550.4h614.4v-102.4h-614.4v102.4z" />
<glyph unicode="&#xe90a;" glyph-name="leather" d="M819.2 755.2v204.8h-614.4v-204.8h-204.8v-819.2h1024v819.2h-204.8zM307.2 857.6h409.6v-102.4h-409.6v102.4zM819.2 448h-614.4v102.4h614.4v-102.4z" />
<glyph unicode="&#xe90b;" glyph-name="category" d="M0-64h460.8v460.8h-460.8v-460.8zM102.4 294.4h256v-256h-256v256zM563.2-64h460.8v460.8h-460.8v-460.8zM665.6 294.4h256v-256h-256v256zM0 499.2h460.8v460.8h-460.8v-460.8zM102.4 857.6h256v-256h-256v256zM563.2 960v-460.8h460.8v460.8h-460.8z" />
<glyph unicode="&#xe90c;" glyph-name="time-o" d="M512 960c-281.6 0-512-230.4-512-512s230.4-512 512-512c281.6 0 512 230.4 512 512s-230.4 512-512 512zM512 49.778c-219.022 0-398.222 179.2-398.222 398.222s179.2 398.222 398.222 398.222c219.022 0 398.222-179.2 398.222-398.222s-179.2-398.222-398.222-398.222zM568.889 618.667h-113.778v-227.556h284.444v113.778h-170.667v113.778z" />
<glyph unicode="&#xe90d;" glyph-name="acarid" d="M554.667 917.333h-85.333v-85.333h85.333v85.333zM241.067 736l-59.733 61.867-61.867-61.867 59.733-59.733 61.867 59.733zM904.533 736l-59.733 59.733-59.733-59.733 59.733-59.733 59.733 59.733zM768-21.333h85.333v170.667h-85.333v-170.667zM469.333-21.333h85.333v170.667h-85.333v-170.667zM842.667 320c6.4 27.733 10.667 55.467 10.667 85.333 0 187.733-153.6 341.333-341.333 341.333s-341.333-153.6-341.333-341.333c0-29.867 4.267-57.6 10.667-85.333h-181.333v-85.333h1024v85.333h-181.333zM170.667-21.333h85.333v170.667h-85.333v-170.667z" />
<glyph unicode="&#xe90e;" glyph-name="dry-o" horiz-adv-x="939" d="M439.467 661.333c36.267-38.4 46.933-91.733 27.733-138.667l64-64c51.2 81.067 40.533 189.867-32 262.4 0 0 0 0 0 0v0c0 0 0 0 0 0-46.933 46.933-49.067 119.467-10.667 168.533l-57.6 57.6h-6.4c-68.267-81.067-64-204.8 14.933-285.867 0 2.133 0 2.133 0 0zM768 202.667h-426.667v-85.333h426.667v85.333zM770.133 631.467v0c0 0 0 0 0 0 27.733-27.733 36.267-68.267 27.733-104.533l64-64c40.533 72.533 32 168.533-32 230.4 0 0 0 0 0 0v0c0 0 0 0 0 0-36.267 36.267-40.533 91.733-12.8 134.4l-61.867 61.867c-59.733-78.933-53.333-189.867 14.933-258.133 0 0 0 0 0 0zM0 373.333v-426.667h938.667v426.667h-938.667zM853.333 32h-768v256h768v-256zM256 202.667h-85.333v-85.333h85.333v85.333zM108.8 631.467v0c0 0 0 0 0 0 27.733-27.733 36.267-68.267 27.733-104.533l64-64c40.533 72.533 32 168.533-32 230.4 0 0 0 0 0 0v0c0 0 0 0 0 0-34.133 34.133-40.533 89.6-12.8 132.267l-59.733 59.733c-61.867-74.667-55.467-185.6 12.8-253.867 0 0 0 0 0 0z" />
<glyph unicode="&#xe90f;" glyph-name="dry" horiz-adv-x="939" d="M439.467 661.333c36.267-38.4 46.933-91.733 27.733-138.667l64-64c51.2 81.067 40.533 189.867-32 262.4 0 0 0 0 0 0v0c0 0 0 0 0 0-46.933 46.933-49.067 119.467-10.667 168.533l-57.6 57.6h-6.4c-68.267-81.067-64-204.8 14.933-285.867 0 2.133 0 2.133 0 0zM770.133 631.467v0c0 0 0 0 0 0 27.733-27.733 36.267-68.267 27.733-104.533l64-64c40.533 72.533 32 168.533-32 230.4 0 0 0 0 0 0v0c0 0 0 0 0 0-36.267 36.267-40.533 91.733-12.8 134.4l-61.867 61.867c-59.733-78.933-53.333-189.867 14.933-258.133 0 0 0 0 0 0zM0 373.333v-426.667h938.667v426.667h-938.667zM256 117.333h-85.333v85.333h85.333v-85.333zM768 117.333h-426.667v85.333h426.667v-85.333zM108.8 631.467v0c0 0 0 0 0 0 27.733-27.733 36.267-68.267 27.733-104.533l64-64c40.533 72.533 32 168.533-32 230.4 0 0 0 0 0 0v0c0 0 0 0 0 0-34.133 34.133-40.533 89.6-12.8 132.267l-59.733 59.733c-61.867-74.667-55.467-185.6 12.8-253.867 0 0 0 0 0 0z" />
<glyph unicode="&#xe910;" glyph-name="sterilization-o" d="M469.333-64h85.333v85.333h-85.333v-85.333zM0 405.333h85.333v85.333h-85.333v-85.333zM554.667 960h-85.333v-85.333h85.333v85.333zM241.067 780.8l-59.733 59.733-59.733-59.733 59.733-59.733 59.733 59.733zM480 416h-85.333v-85.333h85.333v85.333zM119.467 117.333l59.733-59.733 59.733 59.733-59.733 59.733-59.733-59.733zM782.933 778.667l59.733-59.733 59.733 59.733-59.733 59.733-59.733-59.733zM938.667 490.667v-85.333h85.333v85.333h-85.333zM512 789.333c-187.733 0-341.333-153.6-341.333-341.333s153.6-341.333 341.333-341.333c187.733 0 341.333 153.6 341.333 341.333s-151.467 341.333-341.333 341.333zM512 192c-140.8 0-256 115.2-256 256 0 55.467 17.067 106.667 46.933 147.2l358.4-356.267c-42.667-29.867-93.867-46.933-149.333-46.933zM721.067 298.667l-356.267 356.267c42.667 29.867 93.867 46.933 149.333 46.933 140.8 0 256-115.2 256-256-2.133-53.333-19.2-104.533-49.067-147.2zM782.933 115.2l59.733-59.733 59.733 59.733-59.733 59.733-59.733-59.733zM544 480h85.333v85.333h-85.333v-85.333z" />
<glyph unicode="&#xe911;" glyph-name="sterilization" d="M469.333-64h85.333v85.333h-85.333v-85.333zM0 405.333h85.333v85.333h-85.333v-85.333zM782.933 778.667l59.733-59.733 59.733 59.733-59.733 59.733-59.733-59.733zM554.667 960h-85.333v-85.333h85.333v85.333zM241.067 780.8l-59.733 59.733-59.733-59.733 59.733-59.733 59.733 59.733zM119.467 117.333l59.733-59.733 59.733 59.733-59.733 59.733-59.733-59.733zM512 789.333c-187.733 0-341.333-153.6-341.333-341.333s153.6-341.333 341.333-341.333c187.733 0 341.333 153.6 341.333 341.333s-151.467 341.333-341.333 341.333zM586.667 608h85.333v-85.333h-85.333v85.333zM437.333 288h-85.333v85.333h85.333v-85.333zM663.467 236.8l-362.667 362.667 59.733 59.733 362.667-362.667-59.733-59.733zM782.933 115.2l59.733-59.733 59.733 59.733-59.733 59.733-59.733-59.733zM938.667 490.667v-85.333h85.333v85.333h-85.333z" />
<glyph unicode="&#xe912;" glyph-name="camera-plus" d="M53.195 717.299h851.117v-292.571h53.195v345.766h-283.857l-31.987 119.243v0.459l-0.173-0.013h-318.996v-4.083l-30.467-115.606h-292.026v-691.532h611.74v53.195h-558.545v585.143zM364.763 836.987h235.979l17.834-66.494h-271.466l17.654 66.494zM864.416 225.247v159.584h-53.195v-159.584h-159.584v-53.195h159.584v-159.584h53.195v159.584h159.584v53.195zM482.078 663.991c-132.206 0-239.377-107.144-239.377-239.307 0-132.169 107.171-239.31 239.377-239.31s239.377 107.144 239.377 239.31c0 132.162-107.171 239.307-239.377 239.307zM482.078 238.549c-102.826 0-186.182 83.333-186.182 186.132 0 102.796 83.356 186.129 186.182 186.129s186.182-83.333 186.182-186.129c0-102.799-83.356-186.132-186.182-186.132z" />
<glyph unicode="&#xe913;" glyph-name="camera-o" d="M512 128c141.387 0 256 114.613 256 256s-114.613 256-256 256-256-114.613-256-256 114.613-256 256-256zM512 583.111c109.966 0 199.111-89.145 199.111-199.111s-89.145-199.111-199.111-199.111c-109.966 0-199.111 89.145-199.111 199.111s89.145 199.111 199.111 199.111zM729.387 753.778l-46.588 128h-342.777l-46.588-128h-293.433v-739.556h1024v739.556h-294.613zM379.858 824.889h263.104l25.884-71.111h-314.869l25.881 71.111zM967.111 71.111h-910.222v625.778h910.222v-625.778z" />
<glyph unicode="&#xe914;" glyph-name="check-circle-o" d="M874.041 810.041c-199.95 199.95-524.139 199.943-724.082 0-199.95-199.95-199.95-524.132 0-724.082 199.95-199.943 524.132-199.943 724.082 0 199.943 199.943 199.943 524.132 0 724.082zM793.586 166.414c-155.513-155.52-407.652-155.513-563.164 0-155.52 155.513-155.52 407.652 0 563.172 155.513 155.513 407.652 155.52 563.164 0 155.513-155.513 155.513-407.659 0-563.172zM741.22 640.804l-281.586-281.579-191.076 191.068-80.455-80.455 271.531-271.531 362.041 362.041z" />
<glyph unicode="&#xe915;" glyph-name="map-marker" d="M512 960c-251.335 0-455.111-203.748-455.111-455.111 0-272.889 455.111-568.889 455.111-568.889s455.111 297.479 455.111 568.889c0 251.364-203.783 455.111-455.111 455.111zM512 92.444c0 0-341.333 200.889-341.333 412.444 0 188.523 152.832 341.333 341.333 341.333 188.494 0 341.333-152.811 341.333-341.333 0-213.333-341.333-412.444-341.333-412.444zM512 704c-94.251 0-170.667-76.409-170.667-170.667 0-94.265 76.416-170.667 170.667-170.667s170.667 76.402 170.667 170.667c0 94.258-76.416 170.667-170.667 170.667zM512 476.444c-31.417 0-56.889 25.472-56.889 56.889s25.472 56.889 56.889 56.889 56.889-25.472 56.889-56.889c0-31.417-25.472-56.889-56.889-56.889z" />
<glyph unicode="&#xe916;" glyph-name="crosshairs" d="M512 960c-282.771 0-512-229.229-512-512s229.229-512 512-512c282.778 0 512 229.229 512 512s-229.222 512-512 512zM563.2 41.702v150.298h-102.4v-150.298c-185.248 23.117-331.981 169.856-355.098 355.098h150.298v102.4h-150.298c23.11 185.248 169.85 331.987 355.098 355.098v-150.298h102.4v150.298c185.248-23.117 331.981-169.856 355.098-355.098h-150.298v-102.4h150.298c-23.117-185.242-169.85-331.981-355.098-355.098zM563.2 448c0-28.277-22.923-51.2-51.2-51.2s-51.2 22.923-51.2 51.2c0 28.277 22.923 51.2 51.2 51.2s51.2-22.923 51.2-51.2z" />
<glyph unicode="&#xe917;" glyph-name="download" d="M512 960c-282.77 0-512-229.23-512-512s229.23-512 512-512 512 229.23 512 512-229.23 512-512 512zM512-23.040c-260.15 0-471.040 210.893-471.040 471.040 0 260.15 210.89 471.040 471.040 471.040 260.147 0 471.040-210.89 471.040-471.040 0-260.147-210.893-471.040-471.040-471.040zM675.589 488.96h-57.93l-85.179-85.179v269.499h-40.96v-269.499l-85.179 85.179h-57.93l163.589-163.589zM696.32 448v-184.32h-368.64v184.32h-40.96v-225.28h450.56v225.28z" />
<glyph unicode="&#xe918;" glyph-name="credit-card-o" d="M0 820.364v-744.727h1024v744.727h-1024zM930.909 727.273v-116.364h-837.818v116.364h837.818zM93.091 168.727v302.545h837.818v-302.545h-837.818z" />
<glyph unicode="&#xe919;" glyph-name="share" d="M512 960c-282.77 0-512-229.23-512-512s229.23-512 512-512 512 229.23 512 512-229.23 512-512 512zM512-23.040c-260.15 0-471.040 210.893-471.040 471.040 0 260.15 210.89 471.040 471.040 471.040 260.147 0 471.040-210.89 471.040-471.040 0-260.147-210.893-471.040-471.040-471.040zM693.76 266.24h-363.52v363.52h181.76v43.52h-225.28v-450.56h450.56v225.28h-43.52zM552.96 629.76h111.839l-212.483-212.48h57.928l183.516 183.519v-111.839h43.52v184.32h-184.32z" />
<glyph unicode="&#xe91a;" glyph-name="envelope" d="M874.133 832h-720.72l360.363-360.363zM513.776 290.613l-513.776 513.776v-740.389h1024v736.837z" />
<glyph unicode="&#xe91b;" glyph-name="commenting" d="M0 960v-814.545h186.182v-208.913l254.185 208.913h583.633v814.545h-1024zM209.455 616.727h139.636v-139.636h-139.636v139.636zM581.818 477.091h-139.636v139.636h139.636v-139.636zM814.545 477.091h-139.636v139.636h139.636v-139.636z" />
<glyph unicode="&#xe91c;" glyph-name="chain" d="M512 960c-282.77 0-512-229.23-512-512s229.23-512 512-512 512 229.23 512 512-229.23 512-512 512zM512-23.040c-260.15 0-471.040 210.893-471.040 471.040 0 260.15 210.89 471.040 471.040 471.040 260.147 0 471.040-210.89 471.040-471.040 0-260.147-210.893-471.040-471.040-471.040zM433.559 516.936l35.474-20.48 81.92 141.891 106.417-61.44-81.92-141.888 35.474-20.48 102.4 177.359-177.364 102.4zM473.050 257.654l-106.417 61.44 81.92 141.891-35.474 20.48-102.4-177.362 177.362-102.4 102.403 177.362-35.474 20.48zM545.45 546.931l35.471-20.48-102.4-177.357-35.471 20.48 102.4 177.357z" />
<glyph unicode="&#xe91d;" glyph-name="user" d="M512 913.455c-282.775 0-512-229.231-512-512v-180.364h139.636v180.364h-46.545c0 231.354 187.549 418.909 418.909 418.909 231.354 0 418.909-187.555 418.909-418.909h-46.545v-87.273h-372.364v-93.091h512v180.364c0 282.769-229.231 512-512 512zM697.804 133.911c17.233 12.003 33.257 25.612 47.843 40.634h-181.818c-16.669-3.793-34.007-5.818-51.823-5.818-128.535 0-232.727 104.198-232.727 232.727s104.192 232.727 232.727 232.727c128.529 0 232.727-104.198 232.727-232.727 0-13.905-1.292-27.497-3.625-40.727h94.092c1.664 13.353 2.624 26.927 2.624 40.727 0 179.945-145.873 325.818-325.818 325.818-179.951 0-325.818-145.873-325.818-325.818 0-110.848 55.401-208.704 139.974-267.561-82.065-32.006-153.85-84.561-209.024-151.348h131.834c71.913 58.135 163.345 93.091 263.028 93.091 99.677 0 191.11-34.956 263.028-93.091h131.834c-55.185 66.799-126.982 119.36-209.059 151.366z" />
<glyph unicode="&#xe91e;" glyph-name="scanning" d="M0 494.545h1024v-93.091h-1024v93.091zM930.909 29.091h-837.818v279.273h-93.091v-372.364h1024v372.364h-93.091zM0 960v-372.364h93.091v279.273h837.818v-279.273h93.091v372.364z" />
<glyph unicode="&#xe91f;" glyph-name="clock" d="M512 960c-282.769 0-512-229.231-512-512 0-282.771 229.231-512 512-512s512 229.229 512 512c0 282.769-229.231 512-512 512zM819.2 430.933h-341.333v341.333h68.267v-307.2h273.067v-34.133z" />
<glyph unicode="&#xe920;" glyph-name="signal-tower" d="M768 958.865v-118.417c71.622-67.869 116.364-163.811 116.364-270.266s-44.742-202.403-116.364-270.266v-118.417c126.161 83.264 209.455 226.211 209.455 388.684 0 162.467-83.293 305.42-209.455 388.684zM139.636 570.182c0 106.449 44.742 202.397 116.364 270.26v118.417c-126.161-83.264-209.455-226.211-209.455-388.678s83.293-305.414 209.455-388.684v118.423c-71.622 67.863-116.364 163.805-116.364 270.26zM372.364 447.104c-28.951 32.815-46.545 75.881-46.545 123.078s17.594 90.263 46.545 123.078v118.737c-83.45-48.291-139.636-138.467-139.636-241.815 0-103.354 56.186-193.524 139.636-241.821v118.743zM651.636 811.997v-118.737c28.951-32.815 46.545-75.881 46.545-123.084s-17.594-90.269-46.545-123.084v-118.732c83.456 48.291 139.636 138.467 139.636 241.821s-56.18 193.524-139.636 241.815zM558.545 67.66v421.987c27.799 16.105 46.545 46.097 46.545 80.535 0 51.409-41.676 93.091-93.091 93.091-51.409 0-93.091-41.681-93.091-93.091 0-34.432 18.746-64.431 46.545-80.535v-421.987c-54.225-19.177-93.091-70.871-93.091-131.66h279.273c0 60.788-38.86 112.489-93.091 131.66z" />
<glyph unicode="&#xe921;" glyph-name="wechat" d="M296.506 864.39c-302.225-53.981-402.967-395.439-162.566-551.738 13.178-8.477 13.178-7.535-6.592-66.537l-16.948-50.531 121.775 65.28 32.326-7.849c33.891-8.471 77.207-14.435 106.077-14.435h17.263l-5.964 22.912c-47.389 174.493 116.433 347.421 329.542 347.421h28.876l-5.964 20.713c-46.778 163.52-244.177 269.283-437.824 234.764v0zM270.15 711.546c32.006-21.655 33.891-68.422 3.136-88.5-49.897-32.64-108.271 24.791-74.688 73.751 14.743 21.969 50.205 29.184 71.552 14.749v0 0zM527.5 711.546c52.73-35.468 13.184-117.376-45.824-94.778-42.676 16.32-47.703 75.008-7.843 96.035 15.686 8.471 40.169 7.843 53.667-1.257v0zM643.939 582.243c-149.708-27.305-253.591-140.922-247.628-271.476 7.849-174.813 212.794-295.325 409.565-241.338l23.22 6.278 48.966-26.368c26.991-14.749 49.583-25.42 50.211-24.157 0.628 1.571-4.707 20.404-11.607 42.054-15.692 48.337-16.012 44.881 5.021 59.951 236.631 169.775 28.87 510.609-277.748 455.057v0 0zM637.969 441.327c13.178-8.785 20.084-30.755 14.429-46.761-11.921-34.205-63.075-36.719-76.893-3.764-15.68 37.969 27.631 73.123 62.464 50.525v0 0zM847.622 437.562c20.713-19.77 17.263-53.353-6.906-65.908-37.033-18.822-75.951 18.828-56.809 54.924 12.556 23.226 44.876 28.876 63.715 10.985v0z" />
<glyph unicode="&#xe922;" glyph-name="wallet" d="M1024 773.818v93.091h-1024v-837.818h1024v651.636h-837.818v93.091h837.818zM792.727 492.364c77.114 0 139.636-62.522 139.636-139.636s-62.522-139.636-139.636-139.636-139.636 62.522-139.636 139.636 62.522 139.636 139.636 139.636zM839.273 352.727c0-25.706-20.839-46.545-46.545-46.545s-46.545 20.839-46.545 46.545c0 25.706 20.839 46.545 46.545 46.545s46.545-20.839 46.545-46.545z" />
<glyph unicode="&#xe923;" glyph-name="circle-o" d="M874.041 810.041c-199.95 199.95-524.139 199.943-724.082 0-199.95-199.95-199.95-524.132 0-724.082 199.95-199.943 524.132-199.943 724.082 0 199.943 199.943 199.943 524.132 0 724.082zM793.586 166.414c-155.513-155.52-407.652-155.513-563.164 0-155.52 155.513-155.52 407.652 0 563.172 155.513 155.513 407.652 155.52 563.164 0 155.513-155.513 155.513-407.659 0-563.172z" />
<glyph unicode="&#xe924;" glyph-name="credit-card" d="M0 820.364h1024v-209.455h-1024v209.455zM0 471.273h1024v-395.636h-1024v395.636z" />
<glyph unicode="&#xe925;" glyph-name="alipay" d="M653.83 342.691c70.202 127.645 95.732 248.902 95.732 248.902h-236.143v89.361h280.82v38.289h-280.82v134.022h-127.639v-134.022h-255.284v-38.289h255.284v-89.361h-216.995v-38.289h440.367c0-6.388 0-6.388-6.383-12.759 0-44.678-31.907-108.497-57.437-159.552-325.492 127.639-421.225 51.055-446.755 38.295-216.989-153.169-12.759-344.646 19.153-338.263 229.754-51.055 376.547 44.684 478.662 165.94 6.383-6.388 12.759-6.388 19.148-6.388 70.202-38.289 408.46-197.836 408.46-197.836v191.453c-51.060 0-236.148 63.831-370.17 108.497v0zM487.889 285.248c-159.552-204.23-351.011-140.41-382.924-127.639-76.585 19.148-102.115 159.558-6.388 204.23 159.558 51.055 299.968-6.388 402.077-57.443-6.383-12.759-12.765-19.148-12.765-19.148v0z" />
<glyph unicode="&#xe926;" glyph-name="qrcode" d="M0 494.545h465.455v465.455h-465.455v-465.455zM139.636 820.364h186.182v-186.182h-186.182v186.182zM558.545 960v-465.455h465.455v465.455h-465.455zM884.364 634.182h-186.182v186.182h186.182v-186.182zM0-64h465.455v465.455h-465.455v-465.455zM139.636 261.818h186.182v-186.182h-186.182v186.182zM872.727 302.545h58.182v-69.818h-104.727v168.727h-46.545v-168.727h-46.545v168.727h-174.545v-465.455h465.455v110.545h-46.545v139.636h46.545v46.545h-46.545v69.818h46.545v98.909h-151.273v-98.909zM930.909 145.455v-98.909h-69.818v69.818h-128v69.818h197.818v-40.727z" />
<glyph unicode="&#xe927;" glyph-name="question-circle" d="M512 960c-282.716 0-512-229.284-512-512s229.284-512 512-512c282.724 0 512 229.284 512 512s-229.276 512-512 512v0 0zM508.708 89.721c-41.664 0-75.57 33.188-75.57 74.034 0 40.832 33.785 74.034 75.57 74.034 41.657 0 75.563-33.202 75.563-74.034 0-40.846-33.785-74.034-75.563-74.034v0 0zM711.616 508.608c-14.827-23.296-46.258-54.962-94.507-95.097-24.96-20.715-40.491-37.433-46.5-50.148-5.995-12.587-8.825-35.193-8.235-67.797h-107.577c-0.235 15.424-0.469 24.839-0.469 28.26 0 34.837 5.767 63.438 17.301 85.916 11.534 22.485 34.603 47.794 69.099 75.804 34.489 28.124 55.204 46.485 61.909 55.196 10.354 13.774 15.644 28.956 15.644 45.44 0 22.955-9.287 42.603-27.655 59.086-18.361 16.363-43.314 24.597-74.51 24.597-30.123 0-55.317-8.59-75.563-25.657-20.245-17.060-37.668-54.727-41.785-78.037-3.89-22.009-109.931-31.303-108.636 13.298 1.294 44.608 24.484 92.985 64.263 128.064 39.787 35.072 92.046 52.608 156.658 52.608 68.032 0 122.055-17.771 162.311-53.312 40.249-35.548 60.267-76.864 60.267-124.060 0.121-26.133-7.296-50.844-22.016-74.162v0 0z" />
<glyph unicode="&#xe928;" glyph-name="navicon" d="M0 832h1024v-128h-1024v128zM0 512h853.333v-128h-853.333v128zM0 192h1024v-128h-1024v128z" />
<glyph unicode="&#xe929;" glyph-name="clothes-o" horiz-adv-x="1117" d="M1117.091 627.2v0 0l-195.491 332.8h-228.073c0-76.8-62.836-139.636-139.636-139.636s-139.636 62.836-139.636 139.636h-225.745l-141.964-246.691-46.545-81.455 195.491-111.709v-584.145h723.782v93.091h-2.327v488.727l200.145 109.382zM821.527 571.345v0-542.255h-535.273v544.582l-160.582 93.091 116.364 200.145h100.073c34.909-81.455 118.691-139.636 211.782-139.636 95.418 0 176.873 58.182 211.782 139.636h109.382l118.691-200.145-172.218-95.418z" />
<glyph unicode="&#xe92a;" glyph-name="clothes" horiz-adv-x="1117" d="M1117.091 627.2l-195.491 332.8h-228.073c0-76.8-62.836-139.636-139.636-139.636s-139.636 62.836-139.636 139.636h-225.745l-188.509-328.145 195.491-111.709v-584.145h723.782l-2.327 581.818 200.145 109.382zM744.727 517.818h-372.364v93.091h372.364v-93.091z" />
<glyph unicode="&#xe92b;" glyph-name="Store-Service" horiz-adv-x="1088" d="M1024 960h-960v-192h960v192zM1024 704h-960l-64-320h64v-448h960v448h64l-64 320zM448 64h-256v320h256v-320zM896 64h-320v320h320v-320z" />
<glyph unicode="&#xe92c;" glyph-name="store" horiz-adv-x="1071" d="M977.455 960h-884.364v-93.091h884.364v93.091zM884.364 29.091h-232.727v-93.091h325.818v558.545h-93.091v-465.455zM651.636 308.364h-279.273v-279.273h-186.182v465.455h-93.091v-558.545h372.364v279.273h186.182v93.091zM977.455 820.364h-884.364l-93.091-279.273h1070.545l-93.091 279.273z" />
<glyph unicode="&#xe92d;" glyph-name="Wi-Fi-o" horiz-adv-x="1412" d="M1408.883 649.269l-98.869-98.869c-155.366 158.897-370.759 257.766-607.338 257.766-233.048 0-444.91-95.338-600.276-247.172l-98.869 95.338c180.083 180.083 427.255 289.545 699.145 289.545 275.421 0 529.655-112.993 706.207-296.607zM1211.145 448l-98.869-98.869c-102.4 109.462-247.172 176.552-409.6 176.552-155.366 0-296.607-63.559-399.007-165.959l-98.869 98.869c127.117 127.117 303.669 208.331 497.876 208.331 197.738-3.531 377.821-84.745 508.469-218.924zM1009.876 246.731l-98.869-98.869c-52.966 56.497-127.117 91.807-208.331 91.807-77.683 0-148.303-31.779-201.269-81.214l-98.869 98.869c77.683 77.683 183.614 123.586 300.138 123.586 120.055 0 229.517-49.434 307.2-134.179zM808.607 48.993l-98.869-98.869-109.462 109.462c24.717 24.717 60.028 42.372 98.869 42.372 45.903-3.531 84.745-21.186 109.462-52.966z" />
<glyph unicode="&#xe92e;" glyph-name="money-o" d="M0 960v-1024h1024v1024h-1024zM896 64h-768v768h768v-768zM448 153.6h128v112h192v128h-192v64h192v128h-86.4l70.4 67.2-89.6 89.6-150.4-144-147.2 144-89.6-89.6 70.4-67.2h-89.6v-128h192v-64h-192v-128h192v-112z" />
<glyph unicode="&#xe92f;" glyph-name="key-o" horiz-adv-x="862" d="M700.632 636.632v53.895c0 148.211-121.263 269.474-269.474 269.474s-269.474-121.263-269.474-269.474v-53.895h-161.684v-700.632h862.316v700.632h-161.684zM269.474 690.526c0 88.926 72.758 161.684 161.684 161.684s161.684-72.758 161.684-161.684v-53.895h-323.368v53.895zM754.526 43.789h-646.737v485.053h646.737v-485.053zM377.263 151.579h107.789v107.789h53.895v161.684h-215.579v-161.684h53.895v-107.789z" />
<glyph unicode="&#xe930;" glyph-name="wallet-o" d="M994.909 727.273h-157.091v186.182h-837.818v-930.909h1024v744.727h-29.091zM93.091 75.636v744.727h651.636v-93.091h-558.545v-93.091h744.727v-558.545h-837.818zM698.909 497.455c-77.114 0-139.636-62.522-139.636-139.636s62.522-139.636 139.636-139.636 139.636 62.522 139.636 139.636-62.522 139.636-139.636 139.636zM698.909 311.273c-25.705 0-46.545 20.841-46.545 46.545s20.841 46.545 46.545 46.545 46.545-20.841 46.545-46.545-20.841-46.545-46.545-46.545z" />
<glyph unicode="&#xe931;" glyph-name="angle-left" d="M768 81.504l-366.496 366.496 366.496 366.49v145.51l-512-512 512-512z" />
<glyph unicode="&#xe932;" glyph-name="arrow-right" d="M661.943 813.714h-204.8l289.646-292.571h-746.789v-146.286h746.789l-289.646-292.571h204.8l362.057 365.714z" />
<glyph unicode="&#xe933;" glyph-name="angle-right" d="M256 960v-207.095l304.914-304.905-304.914-304.914v-207.086l512 512z" />
<glyph unicode="&#xe934;" glyph-name="times-circle" d="M512 960c-282.773 0-512-229.227-512-512s229.227-512 512-512 512 229.227 512 512-229.227 512-512 512zM721.266 199.31l-0.348-0.199h-130.916l-78.002 135.104-78.002-135.104h-130.916l-0.348 0.199 143.58 248.69-143.573 248.683 0.348 0.206h130.908l78.002-135.111 78.009 135.111h130.901l0.356-0.206-143.58-248.683 143.58-248.69z" />
<glyph unicode="&#xe935;" glyph-name="remove" d="M965.818-64l-395.107 512.128 391.296 511.872h-117.231l-332.951-435.543-336.017 435.543h-117.626l395.101-512.128-391.296-511.872h117.231l332.951 435.543 336.023-435.543z" />
<glyph unicode="&#xe936;" glyph-name="minus-circle" d="M512 960c-282.769 0-512-229.231-512-512s229.231-512 512-512 512 229.231 512 512-229.231 512-512 512zM785.455 401.455h-546.909v93.091h546.909v-93.091z" />
<glyph unicode="&#xe937;" glyph-name="logo" d="M786.269 215.19c-3.182 3.18-5.311 7.121-6.453 11.815v10.908c49.699 16.937 97.802 46.255 139.112 87.546 124.826 124.772 140.394 311.505 34.771 417.079-49.867 49.845-117.837 72.672-188.833 69.77h-350.978l-57.862-82.708h204.154c-8.131-6.857-16.061-14.127-23.755-21.817-20.198-20.187-37.516-42.004-51.94-64.829h-189.726l-57.862-82.708h209.178c-8.765-28.123-13.576-56.657-14.354-84.677h-254.391l-57.862-82.708h322.424c9.326-32.41 25.033-62.547 47.275-88.615h-430.966l-58.201-81.394v-1.313h654.614c1.091-39.499 13.672-73.949 38.851-99.113 62.279-62.247 182.164-47.551 291.344 27.776l-74.823 105.691c-54.749-41.567-104.885-59.522-123.717-40.702zM859.811 648.696c53.772-53.744 38.199-156.449-34.771-229.394-72.978-72.938-175.726-88.501-229.502-34.755-53.772 53.75-38.203 156.449 34.771 229.394 72.98 72.942 175.73 88.501 229.502 34.755z" />
<glyph unicode="&#xe938;" glyph-name="plus" d="M1024 550.4h-409.6v409.6h-204.8v-409.6h-409.6v-204.8h409.6v-409.6h204.8v409.6h409.6z" />
<glyph unicode="&#xe939;" glyph-name="minus" d="M0 550.4h1024v-204.8h-1024v204.8z" />
<glyph unicode="&#xe93a;" glyph-name="edit" d="M744.727 98.909h-651.636v651.636h535.273v93.091h-628.364v-837.818h837.818v349.091h-93.091zM631.104 354.909l392.896 395.636h-130.74l-392.896-395.636z" />
<glyph unicode="&#xe93b;" glyph-name="gear" d="M512 308.364c77.114 0 139.636 62.522 139.636 139.636 0 77.132-62.522 139.636-139.636 139.636s-139.636-62.505-139.636-139.636c0-77.114 62.522-139.636 139.636-139.636zM512 494.545c25.705 0 46.545-20.835 46.545-46.545 0-25.705-20.841-46.545-46.545-46.545s-46.545 20.841-46.545 46.545c0 25.711 20.841 46.545 46.545 46.545zM1024 401.455v93.091h-95.727c-8.931 80.78-40.844 154.595-89.047 214.854l67.729 67.724-65.827 65.821-67.724-67.724c-60.259 48.204-134.074 80.122-214.86 89.053v95.727h-93.091v-95.727c-80.785-8.937-154.601-40.849-214.86-89.047l-67.724 67.718-65.821-65.821 67.724-67.724c-48.204-60.253-80.116-134.068-89.047-214.854h-95.727v-93.091h95.727c8.937-80.785 40.849-154.601 89.053-214.865l-67.724-67.724 65.821-65.821 67.724 67.724c60.259-48.198 134.068-80.111 214.854-89.041v-95.727h93.091v95.727c80.785 8.931 154.601 40.849 214.86 89.047l67.729-67.729 65.821 65.827-67.729 67.724c48.204 60.259 80.116 134.074 89.047 214.86h95.727zM281.687 678.458c58.956 58.921 140.375 95.36 230.313 95.36 89.943 0 171.369-36.445 230.33-95.372l0.116-0.122c58.927-58.956 95.372-140.387 95.372-230.324 0-179.945-145.873-325.818-325.818-325.818-179.951 0-325.818 145.873-325.818 325.818 0 89.937 36.439 171.357 95.354 230.313l0.151 0.145z" />
<glyph unicode="&#xe93c;" glyph-name="phone" d="M433.331 369.37c-101.376 101.306-198.266 218.669-151.802 265.069 66.368 66.426 124.218 107.322 6.592 253.747s-196.090 33.978-260.467-30.394c-74.17-74.24-3.904-350.957 269.613-624.538 273.53-273.459 550.31-343.853 624.538-269.555 64.384 64.32 176.755 142.714 30.406 260.403-146.362 117.69-187.322 59.84-253.754-6.592-46.451-46.272-163.763 50.56-265.126 151.859v0 0 0z" />
<glyph unicode="&#xe93d;" glyph-name="truck" d="M930.016 649.143h-143.73v91.429h-786.286v-73.143h219.429v-91.429h-146.286v-73.143h146.286v-91.429h-91.429v-73.143h91.429v-128h68.805c2.4-50.885 44.293-91.429 95.767-91.429s93.367 40.544 95.767 91.429h283.895c2.4-50.885 44.293-91.429 95.767-91.429s93.367 40.544 95.767 91.429h68.805v276.082l-93.984 162.775zM950.857 352h-164.571v224h101.504l63.067-109.234v-114.766z" />
<glyph unicode="" glyph-name="truck" d="M930.016 649.143h-143.73v91.429h-786.286v-73.143h219.429v-91.429h-146.286v-73.143h146.286v-91.429h-91.429v-73.143h91.429v-128h68.805c2.4-50.885 44.293-91.429 95.767-91.429s93.367 40.544 95.767 91.429h283.895c2.4-50.885 44.293-91.429 95.767-91.429s93.367 40.544 95.767 91.429h68.805v276.082l-93.984 162.775zM950.857 352h-164.571v224h101.504l63.067-109.234v-114.766z" />
<glyph unicode="wechat" glyph-name="wechat" d="M296.506 864.39c-302.225-53.981-402.967-395.439-162.566-551.738 13.178-8.477 13.178-7.535-6.592-66.537l-16.948-50.531 121.775 65.28 32.326-7.849c33.891-8.471 77.207-14.435 106.077-14.435h17.263l-5.964 22.912c-47.389 174.493 116.433 347.421 329.542 347.421h28.876l-5.964 20.713c-46.778 163.52-244.177 269.283-437.824 234.764v0zM270.15 711.546c32.006-21.655 33.891-68.422 3.136-88.5-49.897-32.64-108.271 24.791-74.688 73.751 14.743 21.969 50.205 29.184 71.552 14.749v0 0zM527.5 711.546c52.73-35.468 13.184-117.376-45.824-94.778-42.676 16.32-47.703 75.008-7.843 96.035 15.686 8.471 40.169 7.843 53.667-1.257v0zM643.939 582.243c-149.708-27.305-253.591-140.922-247.628-271.476 7.849-174.813 212.794-295.325 409.565-241.338l23.22 6.278 48.966-26.368c26.991-14.749 49.583-25.42 50.211-24.157 0.628 1.571-4.707 20.404-11.607 42.054-15.692 48.337-16.012 44.881 5.021 59.951 236.631 169.775 28.87 510.609-277.748 455.057v0 0zM637.969 441.327c13.178-8.785 20.084-30.755 14.429-46.761-11.921-34.205-63.075-36.719-76.893-3.764-15.68 37.969 27.631 73.123 62.464 50.525v0 0zM847.622 437.562c20.713-19.77 17.263-53.353-6.906-65.908-37.033-18.822-75.951 18.828-56.809 54.924 12.556 23.226 44.876 28.876 63.715 10.985v0z" />
<glyph unicode="wallet-o" glyph-name="wallet-o" d="M994.909 727.273h-157.091v186.182h-837.818v-930.909h1024v744.727h-29.091zM93.091 75.636v744.727h651.636v-93.091h-558.545v-93.091h744.727v-558.545h-837.818zM698.909 497.455c-77.114 0-139.636-62.522-139.636-139.636s62.522-139.636 139.636-139.636 139.636 62.522 139.636 139.636-62.522 139.636-139.636 139.636zM698.909 311.273c-25.705 0-46.545 20.841-46.545 46.545s20.841 46.545 46.545 46.545 46.545-20.841 46.545-46.545-20.841-46.545-46.545-46.545z" />
<glyph unicode="wallet" glyph-name="wallet" d="M1024 773.818v93.091h-1024v-837.818h1024v651.636h-837.818v93.091h837.818zM792.727 492.364c77.114 0 139.636-62.522 139.636-139.636s-62.522-139.636-139.636-139.636-139.636 62.522-139.636 139.636 62.522 139.636 139.636 139.636zM839.273 352.727c0-25.706-20.839-46.545-46.545-46.545s-46.545 20.839-46.545 46.545c0 25.706 20.839 46.545 46.545 46.545s46.545-20.839 46.545-46.545z" />
<glyph unicode="user" glyph-name="user" d="M512 913.455c-282.775 0-512-229.231-512-512v-180.364h139.636v180.364h-46.545c0 231.354 187.549 418.909 418.909 418.909 231.354 0 418.909-187.555 418.909-418.909h-46.545v-87.273h-372.364v-93.091h512v180.364c0 282.769-229.231 512-512 512zM697.804 133.911c17.233 12.003 33.257 25.612 47.843 40.634h-181.818c-16.669-3.793-34.007-5.818-51.823-5.818-128.535 0-232.727 104.198-232.727 232.727s104.192 232.727 232.727 232.727c128.529 0 232.727-104.198 232.727-232.727 0-13.905-1.292-27.497-3.625-40.727h94.092c1.664 13.353 2.624 26.927 2.624 40.727 0 179.945-145.873 325.818-325.818 325.818-179.951 0-325.818-145.873-325.818-325.818 0-110.848 55.401-208.704 139.974-267.561-82.065-32.006-153.85-84.561-209.024-151.348h131.834c71.913 58.135 163.345 93.091 263.028 93.091 99.677 0 191.11-34.956 263.028-93.091h131.834c-55.185 66.799-126.982 119.36-209.059 151.366z" />
<glyph unicode="truck" glyph-name="truck" d="M930.016 649.143h-143.73v91.429h-786.286v-73.143h219.429v-91.429h-146.286v-73.143h146.286v-91.429h-91.429v-73.143h91.429v-128h68.805c2.4-50.885 44.293-91.429 95.767-91.429s93.367 40.544 95.767 91.429h283.895c2.4-50.885 44.293-91.429 95.767-91.429s93.367 40.544 95.767 91.429h68.805v276.082l-93.984 162.775zM950.857 352h-164.571v224h101.504l63.067-109.234v-114.766z" />
<glyph unicode="times-circle" glyph-name="times-circle" d="M512 960c-282.773 0-512-229.227-512-512s229.227-512 512-512 512 229.227 512 512-229.227 512-512 512zM721.266 199.31l-0.348-0.199h-130.916l-78.002 135.104-78.002-135.104h-130.916l-0.348 0.199 143.58 248.69-143.573 248.683 0.348 0.206h130.908l78.002-135.111 78.009 135.111h130.901l0.356-0.206-143.58-248.683 143.58-248.69z" />
<glyph unicode="time-o" glyph-name="time-o" d="M512 960c-281.6 0-512-230.4-512-512s230.4-512 512-512c281.6 0 512 230.4 512 512s-230.4 512-512 512zM512 49.778c-219.022 0-398.222 179.2-398.222 398.222s179.2 398.222 398.222 398.222c219.022 0 398.222-179.2 398.222-398.222s-179.2-398.222-398.222-398.222zM568.889 618.667h-113.778v-227.556h284.444v113.778h-170.667v113.778z" />
<glyph unicode="store" glyph-name="store" horiz-adv-x="1071" d="M977.455 960h-884.364v-93.091h884.364v93.091zM884.364 29.091h-232.727v-93.091h325.818v558.545h-93.091v-465.455zM651.636 308.364h-279.273v-279.273h-186.182v465.455h-93.091v-558.545h372.364v279.273h186.182v93.091zM977.455 820.364h-884.364l-93.091-279.273h1070.545l-93.091 279.273z" />
<glyph unicode="sterilization-o" glyph-name="sterilization-o" d="M469.333-64h85.333v85.333h-85.333v-85.333zM0 405.333h85.333v85.333h-85.333v-85.333zM554.667 960h-85.333v-85.333h85.333v85.333zM241.067 780.8l-59.733 59.733-59.733-59.733 59.733-59.733 59.733 59.733zM480 416h-85.333v-85.333h85.333v85.333zM119.467 117.333l59.733-59.733 59.733 59.733-59.733 59.733-59.733-59.733zM782.933 778.667l59.733-59.733 59.733 59.733-59.733 59.733-59.733-59.733zM938.667 490.667v-85.333h85.333v85.333h-85.333zM512 789.333c-187.733 0-341.333-153.6-341.333-341.333s153.6-341.333 341.333-341.333c187.733 0 341.333 153.6 341.333 341.333s-151.467 341.333-341.333 341.333zM512 192c-140.8 0-256 115.2-256 256 0 55.467 17.067 106.667 46.933 147.2l358.4-356.267c-42.667-29.867-93.867-46.933-149.333-46.933zM721.067 298.667l-356.267 356.267c42.667 29.867 93.867 46.933 149.333 46.933 140.8 0 256-115.2 256-256-2.133-53.333-19.2-104.533-49.067-147.2zM782.933 115.2l59.733-59.733 59.733 59.733-59.733 59.733-59.733-59.733zM544 480h85.333v85.333h-85.333v-85.333z" />
<glyph unicode="sterilization" glyph-name="sterilization" d="M469.333-64h85.333v85.333h-85.333v-85.333zM0 405.333h85.333v85.333h-85.333v-85.333zM782.933 778.667l59.733-59.733 59.733 59.733-59.733 59.733-59.733-59.733zM554.667 960h-85.333v-85.333h85.333v85.333zM241.067 780.8l-59.733 59.733-59.733-59.733 59.733-59.733 59.733 59.733zM119.467 117.333l59.733-59.733 59.733 59.733-59.733 59.733-59.733-59.733zM512 789.333c-187.733 0-341.333-153.6-341.333-341.333s153.6-341.333 341.333-341.333c187.733 0 341.333 153.6 341.333 341.333s-151.467 341.333-341.333 341.333zM586.667 608h85.333v-85.333h-85.333v85.333zM437.333 288h-85.333v85.333h85.333v-85.333zM663.467 236.8l-362.667 362.667 59.733 59.733 362.667-362.667-59.733-59.733zM782.933 115.2l59.733-59.733 59.733 59.733-59.733 59.733-59.733-59.733zM938.667 490.667v-85.333h85.333v85.333h-85.333z" />
<glyph unicode="silk-o" glyph-name="silk-o" d="M0 960v-1024h1024v1024h-1024zM1024 396.8h-716.8v-256h307.2v102.4h-204.8v51.2h512v-256h-819.2v819.2h819.2v-256h-512v51.2h204.8v102.4h-307.2v-256h716.8v-102.4z" />
<glyph unicode="silk" glyph-name="silk" d="M409.6 704v-102.4h614.4v358.4h-1024v-1024h1024v358.4h-614.4v-102.4h204.8v-102.4h-307.2v307.2h716.8v102.4h-716.8v307.2h307.2v-102.4z" />
<glyph unicode="signal-tower" glyph-name="signal-tower" d="M768 958.865v-118.417c71.622-67.869 116.364-163.811 116.364-270.266s-44.742-202.403-116.364-270.266v-118.417c126.161 83.264 209.455 226.211 209.455 388.684 0 162.467-83.293 305.42-209.455 388.684zM139.636 570.182c0 106.449 44.742 202.397 116.364 270.26v118.417c-126.161-83.264-209.455-226.211-209.455-388.678s83.293-305.414 209.455-388.684v118.423c-71.622 67.863-116.364 163.805-116.364 270.26zM372.364 447.104c-28.951 32.815-46.545 75.881-46.545 123.078s17.594 90.263 46.545 123.078v118.737c-83.45-48.291-139.636-138.467-139.636-241.815 0-103.354 56.186-193.524 139.636-241.821v118.743zM651.636 811.997v-118.737c28.951-32.815 46.545-75.881 46.545-123.084s-17.594-90.269-46.545-123.084v-118.732c83.456 48.291 139.636 138.467 139.636 241.821s-56.18 193.524-139.636 241.815zM558.545 67.66v421.987c27.799 16.105 46.545 46.097 46.545 80.535 0 51.409-41.676 93.091-93.091 93.091-51.409 0-93.091-41.681-93.091-93.091 0-34.432 18.746-64.431 46.545-80.535v-421.987c-54.225-19.177-93.091-70.871-93.091-131.66h279.273c0 60.788-38.86 112.489-93.091 131.66z" />
<glyph unicode="share" glyph-name="share" d="M512 960c-282.77 0-512-229.23-512-512s229.23-512 512-512 512 229.23 512 512-229.23 512-512 512zM512-23.040c-260.15 0-471.040 210.893-471.040 471.040 0 260.15 210.89 471.040 471.040 471.040 260.147 0 471.040-210.89 471.040-471.040 0-260.147-210.893-471.040-471.040-471.040zM693.76 266.24h-363.52v363.52h181.76v43.52h-225.28v-450.56h450.56v225.28h-43.52zM552.96 629.76h111.839l-212.483-212.48h57.928l183.516 183.519v-111.839h43.52v184.32h-184.32z" />
<glyph unicode="scanning" glyph-name="scanning" d="M0 494.545h1024v-93.091h-1024v93.091zM930.909 29.091h-837.818v279.273h-93.091v-372.364h1024v372.364h-93.091zM0 960v-372.364h93.091v279.273h837.818v-279.273h93.091v372.364z" />
<glyph unicode="remove" glyph-name="remove" d="M965.818-64l-395.107 512.128 391.296 511.872h-117.231l-332.951-435.543-336.017 435.543h-117.626l395.101-512.128-391.296-511.872h117.231l332.951 435.543 336.023-435.543z" />
<glyph unicode="question-circle" glyph-name="question-circle" d="M512 960c-282.716 0-512-229.284-512-512s229.284-512 512-512c282.724 0 512 229.284 512 512s-229.276 512-512 512v0 0zM508.708 89.721c-41.664 0-75.57 33.188-75.57 74.034 0 40.832 33.785 74.034 75.57 74.034 41.657 0 75.563-33.202 75.563-74.034 0-40.846-33.785-74.034-75.563-74.034v0 0zM711.616 508.608c-14.827-23.296-46.258-54.962-94.507-95.097-24.96-20.715-40.491-37.433-46.5-50.148-5.995-12.587-8.825-35.193-8.235-67.797h-107.577c-0.235 15.424-0.469 24.839-0.469 28.26 0 34.837 5.767 63.438 17.301 85.916 11.534 22.485 34.603 47.794 69.099 75.804 34.489 28.124 55.204 46.485 61.909 55.196 10.354 13.774 15.644 28.956 15.644 45.44 0 22.955-9.287 42.603-27.655 59.086-18.361 16.363-43.314 24.597-74.51 24.597-30.123 0-55.317-8.59-75.563-25.657-20.245-17.060-37.668-54.727-41.785-78.037-3.89-22.009-109.931-31.303-108.636 13.298 1.294 44.608 24.484 92.985 64.263 128.064 39.787 35.072 92.046 52.608 156.658 52.608 68.032 0 122.055-17.771 162.311-53.312 40.249-35.548 60.267-76.864 60.267-124.060 0.121-26.133-7.296-50.844-22.016-74.162v0 0z" />
<glyph unicode="qrcode" glyph-name="qrcode" d="M0 494.545h465.455v465.455h-465.455v-465.455zM139.636 820.364h186.182v-186.182h-186.182v186.182zM558.545 960v-465.455h465.455v465.455h-465.455zM884.364 634.182h-186.182v186.182h186.182v-186.182zM0-64h465.455v465.455h-465.455v-465.455zM139.636 261.818h186.182v-186.182h-186.182v186.182zM872.727 302.545h58.182v-69.818h-104.727v168.727h-46.545v-168.727h-46.545v168.727h-174.545v-465.455h465.455v110.545h-46.545v139.636h46.545v46.545h-46.545v69.818h46.545v98.909h-151.273v-98.909zM930.909 145.455v-98.909h-69.818v69.818h-128v69.818h197.818v-40.727z" />
<glyph unicode="plus" glyph-name="plus" d="M1024 550.4h-409.6v409.6h-204.8v-409.6h-409.6v-204.8h409.6v-409.6h204.8v409.6h409.6z" />
<glyph unicode="phone" glyph-name="phone" d="M433.331 369.37c-101.376 101.306-198.266 218.669-151.802 265.069 66.368 66.426 124.218 107.322 6.592 253.747s-196.090 33.978-260.467-30.394c-74.17-74.24-3.904-350.957 269.613-624.538 273.53-273.459 550.31-343.853 624.538-269.555 64.384 64.32 176.755 142.714 30.406 260.403-146.362 117.69-187.322 59.84-253.754-6.592-46.451-46.272-163.763 50.56-265.126 151.859v0 0 0z" />
<glyph unicode="navicon" glyph-name="navicon" d="M0 832h1024v-128h-1024v128zM0 512h853.333v-128h-853.333v128zM0 192h1024v-128h-1024v128z" />
<glyph unicode="money-o" glyph-name="money-o" d="M0 960v-1024h1024v1024h-1024zM896 64h-768v768h768v-768zM448 153.6h128v112h192v128h-192v64h192v128h-86.4l70.4 67.2-89.6 89.6-150.4-144-147.2 144-89.6-89.6 70.4-67.2h-89.6v-128h192v-64h-192v-128h192v-112z" />
<glyph unicode="mix-o" glyph-name="mix-o" d="M828.509 459.636l-93.091 93.091h181.527c-46.545 181.527-209.455 314.182-404.945 314.182s-358.4-132.655-404.945-311.855h-95.418c48.873 230.4 253.673 404.945 500.364 404.945 279.273 0 505.018-223.418 512-500.364h-195.491zM195.491 459.636l93.091-93.091h-188.509c39.564-193.164 209.455-337.455 411.927-337.455s372.364 144.291 411.927 337.455h95.418c-41.891-244.364-251.345-430.545-507.345-430.545-281.6 0-512 228.073-512 512 0 4.655 0 9.309 0 11.636h195.491z" />
<glyph unicode="mix" glyph-name="mix" d="M512 960c-283.927 0-512-228.073-512-512s228.073-512 512-512 512 228.073 512 512c0 283.927-228.073 512-512 512zM512 122.182c-179.2 0-325.818 146.618-325.818 325.818h162.909l93.091-93.091h-144.291c34.909-81.455 118.691-139.636 214.109-139.636s176.873 58.182 214.109 139.636h100.073c-41.891-134.982-165.236-232.727-314.182-232.727zM674.909 448l-93.091 93.091h141.964c-34.909 81.455-118.691 139.636-214.109 139.636s-176.873-58.182-214.109-139.636h-95.418c39.564 134.982 165.236 232.727 311.855 232.727 179.2 0 325.818-146.618 325.818-325.818h-162.909z" />
<glyph unicode="minus-circle" glyph-name="minus-circle" d="M512 960c-282.769 0-512-229.231-512-512s229.231-512 512-512 512 229.231 512 512-229.231 512-512 512zM785.455 401.455h-546.909v93.091h546.909v-93.091z" />
<glyph unicode="minus" glyph-name="minus" d="M0 550.4h1024v-204.8h-1024v204.8z" />
<glyph unicode="map-marker" glyph-name="map-marker" d="M512 960c-251.335 0-455.111-203.748-455.111-455.111 0-272.889 455.111-568.889 455.111-568.889s455.111 297.479 455.111 568.889c0 251.364-203.783 455.111-455.111 455.111zM512 92.444c0 0-341.333 200.889-341.333 412.444 0 188.523 152.832 341.333 341.333 341.333 188.494 0 341.333-152.811 341.333-341.333 0-213.333-341.333-412.444-341.333-412.444zM512 704c-94.251 0-170.667-76.409-170.667-170.667 0-94.265 76.416-170.667 170.667-170.667s170.667 76.402 170.667 170.667c0 94.258-76.416 170.667-170.667 170.667zM512 476.444c-31.417 0-56.889 25.472-56.889 56.889s25.472 56.889 56.889 56.889 56.889-25.472 56.889-56.889c0-31.417-25.472-56.889-56.889-56.889z" />
<glyph unicode="logo" glyph-name="logo" d="M786.269 215.19c-3.182 3.18-5.311 7.121-6.453 11.815v10.908c49.699 16.937 97.802 46.255 139.112 87.546 124.826 124.772 140.394 311.505 34.771 417.079-49.867 49.845-117.837 72.672-188.833 69.77h-350.978l-57.862-82.708h204.154c-8.131-6.857-16.061-14.127-23.755-21.817-20.198-20.187-37.516-42.004-51.94-64.829h-189.726l-57.862-82.708h209.178c-8.765-28.123-13.576-56.657-14.354-84.677h-254.391l-57.862-82.708h322.424c9.326-32.41 25.033-62.547 47.275-88.615h-430.966l-58.201-81.394v-1.313h654.614c1.091-39.499 13.672-73.949 38.851-99.113 62.279-62.247 182.164-47.551 291.344 27.776l-74.823 105.691c-54.749-41.567-104.885-59.522-123.717-40.702zM859.811 648.696c53.772-53.744 38.199-156.449-34.771-229.394-72.978-72.938-175.726-88.501-229.502-34.755-53.772 53.75-38.203 156.449 34.771 229.394 72.98 72.942 175.73 88.501 229.502 34.755z" />
<glyph unicode="leather-o" glyph-name="leather-o" d="M819.2 755.2v204.8h-614.4v-204.8h-204.8v-819.2h1024v819.2h-204.8zM307.2 857.6h409.6v-102.4h-409.6v102.4zM102.4 652.8h819.2v-614.4h-819.2v614.4zM204.8 550.4h614.4v-102.4h-614.4v102.4z" />
<glyph unicode="leather" glyph-name="leather" d="M819.2 755.2v204.8h-614.4v-204.8h-204.8v-819.2h1024v819.2h-204.8zM307.2 857.6h409.6v-102.4h-409.6v102.4zM819.2 448h-614.4v102.4h614.4v-102.4z" />
<glyph unicode="key-o" glyph-name="key-o" horiz-adv-x="862" d="M700.632 636.632v53.895c0 148.211-121.263 269.474-269.474 269.474s-269.474-121.263-269.474-269.474v-53.895h-161.684v-700.632h862.316v700.632h-161.684zM269.474 690.526c0 88.926 72.758 161.684 161.684 161.684s161.684-72.758 161.684-161.684v-53.895h-323.368v53.895zM754.526 43.789h-646.737v485.053h646.737v-485.053zM377.263 151.579h107.789v107.789h53.895v161.684h-215.579v-161.684h53.895v-107.789z" />
<glyph unicode="gear" glyph-name="gear" d="M512 308.364c77.114 0 139.636 62.522 139.636 139.636 0 77.132-62.522 139.636-139.636 139.636s-139.636-62.505-139.636-139.636c0-77.114 62.522-139.636 139.636-139.636zM512 494.545c25.705 0 46.545-20.835 46.545-46.545 0-25.705-20.841-46.545-46.545-46.545s-46.545 20.841-46.545 46.545c0 25.711 20.841 46.545 46.545 46.545zM1024 401.455v93.091h-95.727c-8.931 80.78-40.844 154.595-89.047 214.854l67.729 67.724-65.827 65.821-67.724-67.724c-60.259 48.204-134.074 80.122-214.86 89.053v95.727h-93.091v-95.727c-80.785-8.937-154.601-40.849-214.86-89.047l-67.724 67.718-65.821-65.821 67.724-67.724c-48.204-60.253-80.116-134.068-89.047-214.854h-95.727v-93.091h95.727c8.937-80.785 40.849-154.601 89.053-214.865l-67.724-67.724 65.821-65.821 67.724 67.724c60.259-48.198 134.068-80.111 214.854-89.041v-95.727h93.091v95.727c80.785 8.931 154.601 40.849 214.86 89.047l67.729-67.729 65.821 65.827-67.729 67.724c48.204 60.259 80.116 134.074 89.047 214.86h95.727zM281.687 678.458c58.956 58.921 140.375 95.36 230.313 95.36 89.943 0 171.369-36.445 230.33-95.372l0.116-0.122c58.927-58.956 95.372-140.387 95.372-230.324 0-179.945-145.873-325.818-325.818-325.818-179.951 0-325.818 145.873-325.818 325.818 0 89.937 36.439 171.357 95.354 230.313l0.151 0.145z" />
<glyph unicode="envelope" glyph-name="envelope" d="M874.133 832h-720.72l360.363-360.363zM513.776 290.613l-513.776 513.776v-740.389h1024v736.837z" />
<glyph unicode="edit" glyph-name="edit" d="M744.727 98.909h-651.636v651.636h535.273v93.091h-628.364v-837.818h837.818v349.091h-93.091zM631.104 354.909l392.896 395.636h-130.74l-392.896-395.636z" />
<glyph unicode="duvet-o" glyph-name="duvet-o" d="M1024 704v256h-1024v-1024h1024v563.2h-204.8v204.8h-614.4v-307.2h716.8v-358.4h-819.2v819.2h819.2v-153.6h102.4zM716.8 499.2h-409.6v102.4h409.6v-102.4z" />
<glyph unicode="duvet" glyph-name="duvet" d="M1024 499.2v460.8h-1024v-1024h1024v460.8h-819.2v307.2h614.4v-204.8h204.8zM716.8 499.2v102.4h-409.6v-102.4h409.6z" />
<glyph unicode="dry-o" glyph-name="dry-o" horiz-adv-x="939" d="M439.467 661.333c36.267-38.4 46.933-91.733 27.733-138.667l64-64c51.2 81.067 40.533 189.867-32 262.4 0 0 0 0 0 0v0c0 0 0 0 0 0-46.933 46.933-49.067 119.467-10.667 168.533l-57.6 57.6h-6.4c-68.267-81.067-64-204.8 14.933-285.867 0 2.133 0 2.133 0 0zM768 202.667h-426.667v-85.333h426.667v85.333zM770.133 631.467v0c0 0 0 0 0 0 27.733-27.733 36.267-68.267 27.733-104.533l64-64c40.533 72.533 32 168.533-32 230.4 0 0 0 0 0 0v0c0 0 0 0 0 0-36.267 36.267-40.533 91.733-12.8 134.4l-61.867 61.867c-59.733-78.933-53.333-189.867 14.933-258.133 0 0 0 0 0 0zM0 373.333v-426.667h938.667v426.667h-938.667zM853.333 32h-768v256h768v-256zM256 202.667h-85.333v-85.333h85.333v85.333zM108.8 631.467v0c0 0 0 0 0 0 27.733-27.733 36.267-68.267 27.733-104.533l64-64c40.533 72.533 32 168.533-32 230.4 0 0 0 0 0 0v0c0 0 0 0 0 0-34.133 34.133-40.533 89.6-12.8 132.267l-59.733 59.733c-61.867-74.667-55.467-185.6 12.8-253.867 0 0 0 0 0 0z" />
<glyph unicode="dry" glyph-name="dry" horiz-adv-x="939" d="M439.467 661.333c36.267-38.4 46.933-91.733 27.733-138.667l64-64c51.2 81.067 40.533 189.867-32 262.4 0 0 0 0 0 0v0c0 0 0 0 0 0-46.933 46.933-49.067 119.467-10.667 168.533l-57.6 57.6h-6.4c-68.267-81.067-64-204.8 14.933-285.867 0 2.133 0 2.133 0 0zM770.133 631.467v0c0 0 0 0 0 0 27.733-27.733 36.267-68.267 27.733-104.533l64-64c40.533 72.533 32 168.533-32 230.4 0 0 0 0 0 0v0c0 0 0 0 0 0-36.267 36.267-40.533 91.733-12.8 134.4l-61.867 61.867c-59.733-78.933-53.333-189.867 14.933-258.133 0 0 0 0 0 0zM0 373.333v-426.667h938.667v426.667h-938.667zM256 117.333h-85.333v85.333h85.333v-85.333zM768 117.333h-426.667v85.333h426.667v-85.333zM108.8 631.467v0c0 0 0 0 0 0 27.733-27.733 36.267-68.267 27.733-104.533l64-64c40.533 72.533 32 168.533-32 230.4 0 0 0 0 0 0v0c0 0 0 0 0 0-34.133 34.133-40.533 89.6-12.8 132.267l-59.733 59.733c-61.867-74.667-55.467-185.6 12.8-253.867 0 0 0 0 0 0z" />
<glyph unicode="download" glyph-name="download" d="M512 960c-282.77 0-512-229.23-512-512s229.23-512 512-512 512 229.23 512 512-229.23 512-512 512zM512-23.040c-260.15 0-471.040 210.893-471.040 471.040 0 260.15 210.89 471.040 471.040 471.040 260.147 0 471.040-210.89 471.040-471.040 0-260.147-210.893-471.040-471.040-471.040zM675.589 488.96h-57.93l-85.179-85.179v269.499h-40.96v-269.499l-85.179 85.179h-57.93l163.589-163.589zM696.32 448v-184.32h-368.64v184.32h-40.96v-225.28h450.56v225.28z" />
<glyph unicode="crosshairs" glyph-name="crosshairs" d="M512 960c-282.771 0-512-229.229-512-512s229.229-512 512-512c282.778 0 512 229.229 512 512s-229.222 512-512 512zM563.2 41.702v150.298h-102.4v-150.298c-185.248 23.117-331.981 169.856-355.098 355.098h150.298v102.4h-150.298c23.11 185.248 169.85 331.987 355.098 355.098v-150.298h102.4v150.298c185.248-23.117 331.981-169.856 355.098-355.098h-150.298v-102.4h150.298c-23.117-185.242-169.85-331.981-355.098-355.098zM563.2 448c0-28.277-22.923-51.2-51.2-51.2s-51.2 22.923-51.2 51.2c0 28.277 22.923 51.2 51.2 51.2s51.2-22.923 51.2-51.2z" />
<glyph unicode="credit-card-o" glyph-name="credit-card-o" d="M0 820.364v-744.727h1024v744.727h-1024zM930.909 727.273v-116.364h-837.818v116.364h837.818zM93.091 168.727v302.545h837.818v-302.545h-837.818z" />
<glyph unicode="credit-card" glyph-name="credit-card" d="M0 820.364h1024v-209.455h-1024v209.455zM0 471.273h1024v-395.636h-1024v395.636z" />
<glyph unicode="commenting" glyph-name="commenting" d="M0 960v-814.545h186.182v-208.913l254.185 208.913h583.633v814.545h-1024zM209.455 616.727h139.636v-139.636h-139.636v139.636zM581.818 477.091h-139.636v139.636h139.636v-139.636zM814.545 477.091h-139.636v139.636h139.636v-139.636z" />
<glyph unicode="clothes-o" glyph-name="clothes-o" horiz-adv-x="1117" d="M1117.091 627.2v0 0l-195.491 332.8h-228.073c0-76.8-62.836-139.636-139.636-139.636s-139.636 62.836-139.636 139.636h-225.745l-141.964-246.691-46.545-81.455 195.491-111.709v-584.145h723.782v93.091h-2.327v488.727l200.145 109.382zM821.527 571.345v0-542.255h-535.273v544.582l-160.582 93.091 116.364 200.145h100.073c34.909-81.455 118.691-139.636 211.782-139.636 95.418 0 176.873 58.182 211.782 139.636h109.382l118.691-200.145-172.218-95.418z" />
<glyph unicode="clothes" glyph-name="clothes" horiz-adv-x="1117" d="M1117.091 627.2l-195.491 332.8h-228.073c0-76.8-62.836-139.636-139.636-139.636s-139.636 62.836-139.636 139.636h-225.745l-188.509-328.145 195.491-111.709v-584.145h723.782l-2.327 581.818 200.145 109.382zM744.727 517.818h-372.364v93.091h372.364v-93.091z" />
<glyph unicode="clock" glyph-name="clock" d="M512 960c-282.769 0-512-229.231-512-512 0-282.771 229.231-512 512-512s512 229.229 512 512c0 282.769-229.231 512-512 512zM819.2 430.933h-341.333v341.333h68.267v-307.2h273.067v-34.133z" />
<glyph unicode="circle-o" glyph-name="circle-o" d="M874.041 810.041c-199.95 199.95-524.139 199.943-724.082 0-199.95-199.95-199.95-524.132 0-724.082 199.95-199.943 524.132-199.943 724.082 0 199.943 199.943 199.943 524.132 0 724.082zM793.586 166.414c-155.513-155.52-407.652-155.513-563.164 0-155.52 155.513-155.52 407.652 0 563.172 155.513 155.513 407.652 155.52 563.164 0 155.513-155.513 155.513-407.659 0-563.172z" />
<glyph unicode="check-circle-o" glyph-name="check-circle-o" d="M874.041 810.041c-199.95 199.95-524.139 199.943-724.082 0-199.95-199.95-199.95-524.132 0-724.082 199.95-199.943 524.132-199.943 724.082 0 199.943 199.943 199.943 524.132 0 724.082zM793.586 166.414c-155.513-155.52-407.652-155.513-563.164 0-155.52 155.513-155.52 407.652 0 563.172 155.513 155.513 407.652 155.52 563.164 0 155.513-155.513 155.513-407.659 0-563.172zM741.22 640.804l-281.586-281.579-191.076 191.068-80.455-80.455 271.531-271.531 362.041 362.041z" />
<glyph unicode="chain" glyph-name="chain" d="M512 960c-282.77 0-512-229.23-512-512s229.23-512 512-512 512 229.23 512 512-229.23 512-512 512zM512-23.040c-260.15 0-471.040 210.893-471.040 471.040 0 260.15 210.89 471.040 471.040 471.040 260.147 0 471.040-210.89 471.040-471.040 0-260.147-210.893-471.040-471.040-471.040zM433.559 516.936l35.474-20.48 81.92 141.891 106.417-61.44-81.92-141.888 35.474-20.48 102.4 177.359-177.364 102.4zM473.050 257.654l-106.417 61.44 81.92 141.891-35.474 20.48-102.4-177.362 177.362-102.4 102.403 177.362-35.474 20.48zM545.45 546.931l35.471-20.48-102.4-177.357-35.471 20.48 102.4 177.357z" />
<glyph unicode="category" glyph-name="category" d="M0-64h460.8v460.8h-460.8v-460.8zM102.4 294.4h256v-256h-256v256zM563.2-64h460.8v460.8h-460.8v-460.8zM665.6 294.4h256v-256h-256v256zM0 499.2h460.8v460.8h-460.8v-460.8zM102.4 857.6h256v-256h-256v256zM563.2 960v-460.8h460.8v460.8h-460.8z" />
<glyph unicode="camera-plus" glyph-name="camera-plus" d="M53.195 717.299h851.117v-292.571h53.195v345.766h-283.857l-31.987 119.243v0.459l-0.173-0.013h-318.996v-4.083l-30.467-115.606h-292.026v-691.532h611.74v53.195h-558.545v585.143zM364.763 836.987h235.979l17.834-66.494h-271.466l17.654 66.494zM864.416 225.247v159.584h-53.195v-159.584h-159.584v-53.195h159.584v-159.584h53.195v159.584h159.584v53.195zM482.078 663.991c-132.206 0-239.377-107.144-239.377-239.307 0-132.169 107.171-239.31 239.377-239.31s239.377 107.144 239.377 239.31c0 132.162-107.171 239.307-239.377 239.307zM482.078 238.549c-102.826 0-186.182 83.333-186.182 186.132 0 102.796 83.356 186.129 186.182 186.129s186.182-83.333 186.182-186.129c0-102.799-83.356-186.132-186.182-186.132z" />
<glyph unicode="camera-o" glyph-name="camera-o" d="M512 128c141.387 0 256 114.613 256 256s-114.613 256-256 256-256-114.613-256-256 114.613-256 256-256zM512 583.111c109.966 0 199.111-89.145 199.111-199.111s-89.145-199.111-199.111-199.111c-109.966 0-199.111 89.145-199.111 199.111s89.145 199.111 199.111 199.111zM729.387 753.778l-46.588 128h-342.777l-46.588-128h-293.433v-739.556h1024v739.556h-294.613zM379.858 824.889h263.104l25.884-71.111h-314.869l25.881 71.111zM967.111 71.111h-910.222v625.778h910.222v-625.778z" />
<glyph unicode="arrow-right" glyph-name="arrow-right" d="M661.943 813.714h-204.8l289.646-292.571h-746.789v-146.286h746.789l-289.646-292.571h204.8l362.057 365.714z" />
<glyph unicode="angle-right" glyph-name="angle-right" d="M256 960v-207.095l304.914-304.905-304.914-304.914v-207.086l512 512z" />
<glyph unicode="angle-left" glyph-name="angle-left" d="M768 81.504l-366.496 366.496 366.496 366.49v145.51l-512-512 512-512z" />
<glyph unicode="alipay" glyph-name="alipay" d="M653.83 342.691c70.202 127.645 95.732 248.902 95.732 248.902h-236.143v89.361h280.82v38.289h-280.82v134.022h-127.639v-134.022h-255.284v-38.289h255.284v-89.361h-216.995v-38.289h440.367c0-6.388 0-6.388-6.383-12.759 0-44.678-31.907-108.497-57.437-159.552-325.492 127.639-421.225 51.055-446.755 38.295-216.989-153.169-12.759-344.646 19.153-338.263 229.754-51.055 376.547 44.684 478.662 165.94 6.383-6.388 12.759-6.388 19.148-6.388 70.202-38.289 408.46-197.836 408.46-197.836v191.453c-51.060 0-236.148 63.831-370.17 108.497v0zM487.889 285.248c-159.552-204.23-351.011-140.41-382.924-127.639-76.585 19.148-102.115 159.558-6.388 204.23 159.558 51.055 299.968-6.388 402.077-57.443-6.383-12.759-12.765-19.148-12.765-19.148v0z" />
<glyph unicode="acarid-o" glyph-name="acarid-o" d="M554.667 917.333h-85.333v-85.333h85.333v85.333zM241.067 736l-59.733 61.867-61.867-61.867 59.733-59.733 61.867 59.733zM904.533 736l-59.733 59.733-59.733-59.733 59.733-59.733 59.733 59.733zM842.667 320c6.4 27.733 10.667 55.467 10.667 85.333 0 187.733-153.6 341.333-341.333 341.333s-341.333-153.6-341.333-341.333c0-29.867 4.267-57.6 10.667-85.333h-181.333v-85.333h1024v85.333h-181.333zM753.067 320h-482.133c-8.533 27.733-14.933 55.467-14.933 85.333 0 140.8 115.2 256 256 256s256-115.2 256-256c0-29.867-6.4-57.6-14.933-85.333zM469.333-21.333h85.333v170.667h-85.333v-170.667zM768-21.333h85.333v170.667h-85.333v-170.667zM170.667-21.333h85.333v170.667h-85.333v-170.667z" />
<glyph unicode="acarid" glyph-name="acarid" d="M554.667 917.333h-85.333v-85.333h85.333v85.333zM241.067 736l-59.733 61.867-61.867-61.867 59.733-59.733 61.867 59.733zM904.533 736l-59.733 59.733-59.733-59.733 59.733-59.733 59.733 59.733zM768-21.333h85.333v170.667h-85.333v-170.667zM469.333-21.333h85.333v170.667h-85.333v-170.667zM842.667 320c6.4 27.733 10.667 55.467 10.667 85.333 0 187.733-153.6 341.333-341.333 341.333s-341.333-153.6-341.333-341.333c0-29.867 4.267-57.6 10.667-85.333h-181.333v-85.333h1024v85.333h-181.333zM170.667-21.333h85.333v170.667h-85.333v-170.667z" />
<glyph unicode="Wi-Fi-o" glyph-name="Wi-Fi-o" horiz-adv-x="1412" d="M1408.883 649.269l-98.869-98.869c-155.366 158.897-370.759 257.766-607.338 257.766-233.048 0-444.91-95.338-600.276-247.172l-98.869 95.338c180.083 180.083 427.255 289.545 699.145 289.545 275.421 0 529.655-112.993 706.207-296.607zM1211.145 448l-98.869-98.869c-102.4 109.462-247.172 176.552-409.6 176.552-155.366 0-296.607-63.559-399.007-165.959l-98.869 98.869c127.117 127.117 303.669 208.331 497.876 208.331 197.738-3.531 377.821-84.745 508.469-218.924zM1009.876 246.731l-98.869-98.869c-52.966 56.497-127.117 91.807-208.331 91.807-77.683 0-148.303-31.779-201.269-81.214l-98.869 98.869c77.683 77.683 183.614 123.586 300.138 123.586 120.055 0 229.517-49.434 307.2-134.179zM808.607 48.993l-98.869-98.869-109.462 109.462c24.717 24.717 60.028 42.372 98.869 42.372 45.903-3.531 84.745-21.186 109.462-52.966z" />
<glyph unicode="Store-Service" glyph-name="Store-Service" horiz-adv-x="1088" d="M1024 960h-960v-192h960v192zM1024 704h-960l-64-320h64v-448h960v448h64l-64 320zM448 64h-256v320h256v-320zM896 64h-320v320h320v-320z" />
<glyph unicode="OK" glyph-name="OK" horiz-adv-x="2105" d="M2104.889 974.222v0 0 0zM2093.511 960h-321.422l-349.867-349.867v349.867h-227.556v-1024h227.556v349.867l349.867-349.867h321.422l-512 512 512 512zM512 960c-281.6 0-512-230.4-512-512s230.4-512 512-512 512 230.4 512 512c0 281.6-230.4 512-512 512zM512 163.556c-156.444 0-284.444 128-284.444 284.444s128 284.444 284.444 284.444c156.444 0 284.444-128 284.444-284.444s-128-284.444-284.444-284.444zM2104.889-75.378v0 0 0z" />
<glyph unicode="Disinfection-Cabinet" glyph-name="Disinfection-Cabinet" horiz-adv-x="931" d="M0-64h418.909v651.636h-418.909v-651.636zM186.182 448h93.091v-279.273h-93.091v279.273zM0 960v-279.273h930.909v279.273h-930.909zM279.273 773.818h-93.091v93.091h93.091v-93.091zM512 773.818h-93.091v93.091h93.091v-93.091zM744.727 773.818h-93.091v93.091h93.091v-93.091zM512-64h418.909v651.636h-418.909v-651.636zM651.636 448h93.091v-279.273h-93.091v279.273z" />
</font>
</defs>
</svg>
